<?xml version="1.0" encoding="UTF-8" standalone="no"?>
<svg
   width="100%"
   height="100%"
   viewBox="0 0 4646 1182"
   version="1.1"
   xml:space="preserve"
   style="fill-rule:evenodd;clip-rule:evenodd;stroke-linejoin:round;stroke-miterlimit:2;"
   id="svg68"
   sodipodi:docname="NFDI4Earth_logo.svg"
   inkscape:version="1.1.2 (0a00cf5339, 2022-02-04)"
   inkscape:export-filename="/home/daniel/Documents/TUD/2022_NFDI4Earth/NFDI4Earth_logo_transparent.png"
   inkscape:export-xdpi="99.974602"
   inkscape:export-ydpi="99.974602"
   xmlns:inkscape="http://www.inkscape.org/namespaces/inkscape"
   xmlns:sodipodi="http://sodipodi.sourceforge.net/DTD/sodipodi-0.dtd"
   xmlns="http://www.w3.org/2000/svg"
   xmlns:svg="http://www.w3.org/2000/svg"><defs
   id="defs72" /><sodipodi:namedview
   id="namedview70"
   pagecolor="#ffffff"
   bordercolor="#666666"
   borderopacity="1.0"
   inkscape:pageshadow="2"
   inkscape:pageopacity="0.0"
   inkscape:pagecheckerboard="true"
   showgrid="false"
   inkscape:zoom="0.2173913"
   inkscape:cx="1766.4"
   inkscape:cy="591.1"
   inkscape:window-width="1866"
   inkscape:window-height="1016"
   inkscape:window-x="0"
   inkscape:window-y="0"
   inkscape:window-maximized="1"
   inkscape:current-layer="svg68" />
    <g
   id="ArtBoard1"
   transform="matrix(1,0,0,1,-1220.66,-540.034)">
        <rect
   x="1220.66"
   y="540.034"
   width="1181.1"
   height="1181.1"
   style="fill:none;"
   id="rect2" />
        <clipPath
   id="_clip1">
            <rect
   x="1220.66"
   y="540.034"
   width="1181.1"
   height="1181.1"
   id="rect4" />
        </clipPath>
        <g
   clip-path="url(#_clip1)"
   id="g49">
            <g
   id="Ebene1"
   transform="matrix(1,0,0,1,1220.66,540.034)">
                <g
   transform="matrix(0.812133,0,0,1.28185,-807.587,-753.352)"
   id="g9">
                    <rect
   x="994.402"
   y="587.705"
   width="1454.32"
   height="921.402"
   style="fill:rgb(192,214,223);"
   id="rect7" />
                </g>
                <g
   transform="matrix(1,0,0,0.977416,-1131.01,-646.931)"
   id="g13">
                    <ellipse
   cx="1721.56"
   cy="1369.65"
   rx="727.161"
   ry="254.008"
   style="fill:rgb(5,102,141);"
   id="ellipse11" />
                </g>
                <rect
   x="0"
   y="736.496"
   width="1181.1"
   height="764.699"
   style="fill:rgb(5,102,141);"
   id="rect15" />
                <g
   transform="matrix(1,0,0,0.977416,-1131.01,-214.64)"
   id="g19">
                    <ellipse
   cx="1721.56"
   cy="1369.65"
   rx="727.161"
   ry="254.008"
   style="fill:rgb(0,63,95);"
   id="ellipse17" />
                </g>
            </g>
            <g
   id="Ebene5"
   transform="matrix(1,0,0,1,1220.66,580.034)">
                <g
   transform="matrix(-2.30466,-0.995311,-0.995311,2.30466,1913.08,467.324)"
   id="g24">
                    <rect
   x="281.041"
   y="297.545"
   width="2"
   height="64.135"
   style="fill:white;stroke:white;stroke-width:4.72px;"
   id="rect22" />
                </g>
                <path
   d="M966.917,872.347C910.737,848.083 884.866,782.874 909.129,726.694C933.391,670.514 998.6,644.636 1054.78,668.898L1054.78,668.898L1054.78,668.898L1054.78,668.898C1110.96,693.162 1136.84,758.375 1112.57,814.555C1088.31,870.736 1023.1,896.609 966.919,872.347L966.919,872.347L966.917,872.347L966.917,872.347Z"
   style="fill:white;fill-rule:nonzero;"
   id="path26" />
                <g
   transform="matrix(-1.55779,0,0,1.55779,1098.67,-132.248)"
   id="g30">
                    <rect
   x="281.041"
   y="297.545"
   width="2"
   height="64.135"
   style="fill:white;stroke:white;stroke-width:7.61px;"
   id="rect28" />
                </g>
                <path
   d="M659.307,193.749C697.281,193.749 728.066,224.534 728.066,262.508C728.066,300.482 697.281,331.265 659.307,331.266L659.307,331.266L659.307,331.266L659.307,331.266C621.333,331.265 590.551,300.482 590.551,262.508C590.551,224.534 621.333,193.749 659.307,193.749L659.307,193.749L659.307,193.749L659.307,193.749Z"
   style="fill:white;fill-rule:nonzero;"
   id="path32" />
                <g
   transform="matrix(-1.98082,0.620958,0.620958,1.98082,574.329,-193.251)"
   id="g36">
                    <rect
   x="281.041"
   y="297.545"
   width="2"
   height="64.135"
   style="fill:white;stroke:white;stroke-width:5.71px;"
   id="rect34" />
                </g>
                <path
   d="M145.605,396.407C193.891,381.271 245.306,408.144 260.443,456.43C275.58,504.716 248.707,556.13 200.421,571.268L200.421,571.268L200.42,571.268L200.42,571.268C152.134,586.404 100.723,559.532 85.586,511.246C70.449,462.96 97.318,411.545 145.604,396.408L145.604,396.408L145.605,396.407L145.605,396.407Z"
   style="fill:white;fill-rule:nonzero;"
   id="path38" />
                <path
   d="M173.014,483.838C254.374,397.231 417.859,323.591 660.866,262.507"
   style="fill:none;stroke:white;stroke-width:33.01px;stroke-linecap:round;stroke-miterlimit:1.5;"
   id="path40" />
                <path
   d="M1011.05,778.316C789.808,614.955 523.634,502.104 173.014,483.838"
   style="fill:none;stroke:white;stroke-width:33.01px;stroke-linecap:round;stroke-miterlimit:1.5;"
   id="path42" />
                <path
   d="M660.866,262.507C852.344,287.493 1032.18,331.098 1181.1,424.181L1371.56,590.551C1282.23,703.875 1159.93,765.395 1011.05,785.133C995.666,556.029 880.433,381.011 660.866,262.507Z"
   style="fill:none;stroke:white;stroke-width:33.01px;stroke-linecap:round;stroke-miterlimit:1.5;"
   id="path44" />
                <path
   d="M660.866,262.507C331.584,219.626 6.605,384.076 -237.443,483.838C-62.525,421.824 32.13,436.926 173.014,478.418"
   style="fill:none;stroke:white;stroke-width:33.01px;stroke-linecap:round;stroke-miterlimit:1.5;"
   id="path46" />
            </g>
        </g>
    </g>
    <g
   id="ArtBoard2"
   transform="matrix(0.941622,0,0,1,197.067,0)">
        <rect
   x="-209.285"
   y="0"
   width="4933.85"
   height="1181.1"
   style="fill:none;"
   id="rect52" />
        <g
   id="Original"
   transform="matrix(1.062,0,0,1,-279.459,450.431)">
            <text
   x="1312.99px"
   y="526.872px"
   style="font-family:'OpenSans-Bold', 'Open Sans', sans-serif;font-weight:700;font-size:600px;fill:rgb(5,102,141);"
   id="text56">N<tspan
   x="1770.78px 2070.08px "
   y="526.872px 526.872px "
   id="tspan54">FD</tspan></text>
            <text
   x="2484.22px"
   y="526.872px"
   style="font-family:'OpenSans-Bold', 'Open Sans', sans-serif;font-weight:700;font-size:600px;fill:rgb(5,102,141);"
   id="text58">I</text>
            <g
   transform="matrix(0.76,0,0,0.76,643.885,142.449)"
   id="g62">
                <text
   x="2682.85px"
   y="593.539px"
   style="font-family:'OpenSans-Bold', 'Open Sans', sans-serif;font-weight:700;font-size:600px;fill:rgb(5,102,141);"
   id="text60">4</text>
            </g>
            <text
   x="2943.14px"
   y="526.872px"
   style="font-family:'OpenSans-Bold', 'Open Sans', sans-serif;font-weight:700;font-size:600px;fill:rgb(5,102,141);"
   id="text64">Earth</text>
        </g>
    </g>
</svg>
